<svg xmlns="http://www.w3.org/2000/svg" width="532" height="532" viewBox="0 0 532 532" xmlns:xlink="http://www.w3.org/1999/xlink"><circle cx="270.76003" cy="260.93216" r="86.34897" fill="#ffb6b6"/><polygon points="221.19 360.04999 217.28893 320.61639 295.19 306.04999 341.19 418.04999 261.19 510.04999 204.19 398.04999 221.19 360.04999" fill="#ffb6b6"/><path d="M441.47998,463.23999c-49,44.44-111.87,68.76001-178.47998,68.76001-61.40997,0-119.64001-20.67004-166.75-58.72003-.02997-.02002-.04999-.03998-.08002-.07001-3.25-2.62-6.44995-5.33002-9.58997-8.13,.17999-.79999,.37-1.58997,.56-2.35999,7.75-32.08002,17.20996-39.44,17.20996-39.44l47.20001-27.33002,67.64001-33.89996h2s-5.07001,14.65997,10.54999,30.03998c7.20001,7.09003,18.33002,13.25,35.46002,16.10999,22.33997,3.72003,33.95001-4.81,39.88-16.14996,6.95996-13.29004,10.10999-27.42999,9.57996-33.17004-.12-1.25995-.21997-1.96997-.21997-1.96997,0,0,4.27002,2.51001,17.03998,10.48999,11.22003,7.01001,25.91003,15.91003,41.52002,24.65002,2.08002,1.16998,4.16998,2.32996,6.28003,3.47998,10.20996,5.59003,20.66998,11,30.67999,15.67999,14.82001,6.91998,23.71997,26.46002,28.98999,49.62,.17999,.79999,.35999,1.60004,.52997,2.41003Z" fill="#6c63ff"/><path d="M454.09003,77.90997C403.84998,27.66998,337.04999,0,266,0S128.15002,27.66998,77.90997,77.90997C27.66998,128.14996,0,194.94995,0,266c0,64.84998,23.04999,126.15997,65.28998,174.56995,4.03003,4.63,8.24005,9.14001,12.62,13.52002,1.03003,1.03003,2.07001,2.06,3.12006,3.06,2.79999,2.71002,5.64996,5.35999,8.54999,7.92999,1.76001,1.57001,3.53998,3.11005,5.33997,4.62,1.41003,1.19,2.82001,2.36005,4.25,3.51001,.03003,.03003,.05005,.04999,.08002,.07001,47.10999,38.04999,105.34003,58.72003,166.75,58.72003,66.60999,0,129.47998-24.32001,178.47998-68.76001,3.27002-2.96002,6.47003-6.01001,9.61005-9.15002,.98999-.98999,1.97998-1.98999,2.94995-3,2.70001-2.77997,5.32001-5.60999,7.88-8.47998,43.37-48.72003,67.08002-110.84003,67.08002-176.60999,0-71.05005-27.66998-137.85004-77.90997-188.09003Zm10.17999,362.21002c-2.5,2.83997-5.06,5.63995-7.67999,8.37-4.08002,4.25-8.29004,8.37-12.64001,12.33997-1.65002,1.52002-3.32001,3-5.01001,4.47003-17.07001,14.84998-36.07001,27.52997-56.56,37.63-7.19,3.54999-14.56,6.77997-22.09998,9.66998-29.29004,11.23999-61.08002,17.40002-94.28003,17.40002-32.03998,0-62.76001-5.74005-91.19-16.24005-11.66998-4.29999-22.95001-9.40997-33.77997-15.25995-1.59003-.86005-3.17004-1.73004-4.74005-2.62006-8.25995-4.67999-16.25-9.78998-23.91998-15.31-5.72998-4.10999-11.28998-8.44-16.65997-13-1.88-1.58997-3.73999-3.19995-5.57001-4.84998-2.98004-2.65002-5.90002-5.38-8.75-8.17999-5.40002-5.28998-10.56-10.79999-15.48999-16.53003C26.09003,391.76996,2,331.64996,2,266,2,120.42999,120.42999,2,266,2s264,118.42999,264,264c0,66.65997-24.83002,127.62-65.72998,174.12Z" fill="#3f3d56"/><path d="M216.03758,340.35527l17.03112,3.84802s-13.38822-42.45452-8.84396-46.50767,15.68007,2.33327,15.68007,2.33327l11.70201,13.11991,14.25393-14.51239s15.47494-19.24211,21.53395-24.64631c6.05901-5.4042-3.67318-25.46364-3.67318-25.46364,0,0,89.89184-24.23923,56.443-67.83967,0,0-19.61094-34.18452-25.99736-23.04871-6.38642,11.13581-14.00161-6.55012-14.00161-6.55012l-23.25383,4.42198s-45.89428-27.06043-89.4533,30.82959c-43.55902,57.89003,28.57917,154.01573,28.57917,154.01573Z" fill="#2f2e41"/></svg>